<?xml version="1.0" encoding="UTF-8" standalone="no"?>
<svg width="240px" height="150px" viewBox="0 0 240 150" version="1.1" xmlns="http://www.w3.org/2000/svg" xmlns:xlink="http://www.w3.org/1999/xlink" xmlns:sketch="http://www.bohemiancoding.com/sketch/ns">
    <!-- Generator: Sketch 3.2.2 (9983) - http://www.bohemiancoding.com/sketch -->
    <title>Icons</title>
    <desc>Created with Sketch.</desc>
    <defs></defs>
    <g id="Page-1" stroke="none" stroke-width="1" fill="none" fill-rule="evenodd" sketch:type="MSPage">
        <g id="Icons" sketch:type="MSArtboardGroup">
            <g id="icon_explore" sketch:type="MSLayerGroup" transform="translate(68.000000, 20.000000)">
                <g id="Group" sketch:type="MSShapeGroup">
                    <g id="Oval" fill="#000000">
                        <ellipse cx="51.978" cy="55.343" rx="51.978" ry="54.344" fill="#1d8f8f"></ellipse>
                    </g>
                    <circle id="Oval" fill="#FFFFFF" cx="51.978" cy="52.979" r="51.978"></circle>
                    <path d="M51.978,100.913 C23.949,100.913 1.115,78.725 0.051,50.957 C0.025,51.629 0,52.301 0,52.979 C0,81.686 23.271,104.958 51.978,104.958 C80.685,104.958 103.957,81.687 103.957,52.979 C103.957,52.301 103.932,51.629 103.906,50.958 C102.841,78.726 80.008,100.913 51.978,100.913 L51.978,100.913 Z" id="Shape" fill="#D9DCE2"></path>
                    <ellipse id="Oval" fill="#D9DCE2" cx="51.979" cy="51.165" rx="39.646" ry="41.564"></ellipse>
                    <circle id="Oval" fill="#26B9B9" cx="51.979" cy="52.979" r="39.646"></circle>
                    <g transform="translate(16.000000, 13.000000)" id="Shape" fill="#000000">
                        <path d="M8.347,15.684 C28.584,1.395 56.099,5.052 71.98,23.395 C70.983,21.238 69.788,19.136 68.368,17.125 C55.738,-0.762 31,-5.023 13.114,7.604 C7.328,11.69 2.978,17.045 0.155,23.021 C2.548,20.325 5.275,17.852 8.347,15.684 L8.347,15.684 Z"></path>
                    </g>
                    <ellipse id="Oval" fill="#FFFFFF" transform="translate(68.894355, 33.615457) rotate(26.731608) translate(-68.894355, -33.615457) " cx="68.894355" cy="33.615457" rx="10.9457135" ry="6.52182928"></ellipse>
                    <path d="M56.503,50.954 L26.463,29.02 L44.618,61.483 L74.658,83.419 L56.503,50.954 Z" id="Shape" opacity="0.3" fill="#000000"></path>
                    <g transform="translate(28.000000, 27.000000)">
                        <path d="M18.112,31.223 L0.829,0.318 L29.425,21.199 L18.112,31.223 Z" id="Shape" fill="#FFFFFF"></path>
                        <path d="M29.425,21.199 L46.709,52.104 L18.112,31.223 L29.425,21.199 Z" id="Shape" fill="#5E6375"></path>
                        <path d="M0.831,0.319 L18.112,31.223 L23.769,26.211 L0.831,0.319 Z" id="Shape" fill="#D9DCE2"></path>
                        <path d="M46.709,52.104 L18.113,31.225 L23.77,26.213 L46.709,52.104 Z" id="Shape" opacity="0.3" fill="#000000"></path>
                        <circle id="Oval" fill="#26B9B9" cx="23.769" cy="26.211" r="2.326"></circle>
                    </g>
                </g>
            </g>
        </g>
    </g>
</svg>