<?xml version="1.0" encoding="utf-8"?>
<!-- Generator: Adobe Illustrator 13.0.2, SVG Export Plug-In . SVG Version: 6.00 Build 14948)  -->
<!DOCTYPE svg PUBLIC "-//W3C//DTD SVG 1.1//EN" "http://www.w3.org/Graphics/SVG/1.1/DTD/svg11.dtd">
<svg version="1.1" id="Layer_1" xmlns="http://www.w3.org/2000/svg" xmlns:xlink="http://www.w3.org/1999/xlink" x="0px" y="0px"
	 width="81.393px" height="107.061px" viewBox="0 0 81.393 107.061" enable-background="new 0 0 81.393 107.061"
	 xml:space="preserve">
<g>
	<rect y="13.234" fill="#2A6F6F" width="70.233" height="93.826"/>
	<rect x="11.161" fill="#399492" width="70.232" height="93.827"/>
	<polygon fill="#328180" points="11.16,93.837 0,107.061 0,13.31 11.16,0.086 	"/>
	<g>
		<g opacity="0.3">
			<path d="M30.666,20.703c-7.073,4.381-8.388,9.827-8.388,11.205c0,0.938,0.438,1.064,0.751,1.064c0.313,0,0.438-0.127,0.751-0.501
				c1.002-0.94,2.379-1.314,3.631-1.314c3.255,0,5.885,2.566,5.885,6.009c0,3.192-2.191,6.136-6.386,6.136
				c-5.071,0-7.637-3.883-7.637-8.765c0-4.132,1.877-10.954,10.266-15.712L30.666,20.703z M46.692,20.703
				c-7.074,4.381-8.389,9.827-8.389,11.205c0,0.124,0,1.064,0.751,1.064c0.313,0,0.501-0.188,0.814-0.501
				c0.939-0.876,2.317-1.314,3.569-1.314c3.255,0,5.946,2.566,5.946,6.009c0,3.192-2.254,6.136-6.448,6.136
				c-5.007,0-7.574-3.883-7.574-8.765c0-4.257,2.003-11.018,10.204-15.712L46.692,20.703z"/>
		</g>
		<g>
			<path fill="#FFFFFF" d="M30.666,18.233c-7.073,4.382-8.388,9.828-8.388,11.205c0,0.938,0.438,1.064,0.751,1.064
				c0.313,0,0.438-0.126,0.751-0.5c1.002-0.939,2.379-1.315,3.631-1.315c3.255,0,5.885,2.567,5.885,6.01
				c0,3.192-2.191,6.135-6.386,6.135c-5.071,0-7.637-3.882-7.637-8.764c0-4.132,1.877-10.954,10.266-15.713L30.666,18.233z
				 M46.692,18.233c-7.074,4.382-8.389,9.828-8.389,11.205c0,0.125,0,1.064,0.751,1.064c0.313,0,0.501-0.188,0.814-0.5
				c0.939-0.876,2.317-1.315,3.569-1.315c3.255,0,5.946,2.567,5.946,6.01c0,3.192-2.254,6.135-6.448,6.135
				c-5.007,0-7.574-3.882-7.574-8.764c0-4.258,2.003-11.019,10.204-15.713L46.692,18.233z"/>
		</g>
	</g>
	<g>
		<g opacity="0.3">
			<path d="M43.558,73.06c7.012-4.382,8.326-9.828,8.326-11.206c0-0.124,0-1.064-0.751-1.064c-0.313,0-0.438,0.125-0.752,0.439
				c-1.002,0.938-2.379,1.378-3.568,1.378c-3.192,0-5.946-2.505-5.946-6.073c0-3.131,2.253-6.072,6.447-6.072
				c4.945,0,7.575,3.756,7.575,8.765c0,4.256-2.004,11.017-10.204,15.713L43.558,73.06z M59.583,73.06
				c7.074-4.382,8.389-9.828,8.389-11.206c0-0.939-0.5-1.064-0.751-1.064c-0.312,0-0.438,0.125-0.814,0.439
				c-0.938,0.938-2.315,1.378-3.567,1.378c-3.192,0-5.885-2.568-5.885-6.073c0-3.131,2.19-6.072,6.385-6.072
				c5.009,0,7.638,3.756,7.638,8.765c0,4.068-1.878,10.954-10.267,15.713L59.583,73.06z"/>
		</g>
		<g>
			<path fill="#FFFFFF" d="M43.558,70.591c7.012-4.382,8.326-9.828,8.326-11.205c0-0.126,0-1.065-0.751-1.065
				c-0.313,0-0.438,0.126-0.752,0.438c-1.002,0.938-2.379,1.378-3.568,1.378c-3.192,0-5.946-2.505-5.946-6.073
				c0-3.13,2.253-6.071,6.447-6.071c4.945,0,7.575,3.755,7.575,8.764c0,4.256-2.004,11.018-10.204,15.713L43.558,70.591z
				 M59.583,70.591c7.074-4.382,8.389-9.828,8.389-11.205c0-0.939-0.5-1.065-0.751-1.065c-0.312,0-0.438,0.126-0.814,0.438
				c-0.938,0.938-2.315,1.378-3.567,1.378c-3.192,0-5.885-2.567-5.885-6.073c0-3.13,2.19-6.071,6.385-6.071
				c5.009,0,7.638,3.755,7.638,8.764c0,4.068-1.878,10.954-10.267,15.713L59.583,70.591z"/>
		</g>
	</g>
	<polygon fill="#FFFFFF" points="65.748,103.154 73.62,93.827 11.195,93.827 3.315,103.154 	"/>
</g>
</svg>
