<?xml version="1.0" encoding="UTF-8" standalone="no"?>
<svg viewBox="0 0 265 214" version="1.1" xmlns="http://www.w3.org/2000/svg" xmlns:xlink="http://www.w3.org/1999/xlink" xmlns:sketch="http://www.bohemiancoding.com/sketch/ns">
    <!-- Generator: Sketch 3.2.2 (9983) - http://www.bohemiancoding.com/sketch -->
            <defs></defs>
    <g class="Page-1" stroke="none" stroke-width="1" fill="none" fill-rule="evenodd">
        <g class="yarn-logo-icon">
            <path d="M230.07915,85.96925 C241.74615,97.63625 241.74615,116.72825 230.07915,128.39525 L153.86115,204.61325 C142.19415,216.28025 123.10215,216.28025 111.43415,204.61325 L35.2171501,128.39525 C23.5491501,116.72825 23.5491501,97.63625 35.2171501,85.96925 L111.43415,9.75025 C123.10215,-1.91675 142.19415,-1.91675 153.86115,9.75025 L230.07915,85.96925 Z" class="tile" fill="#FFFFFF"></path>
            <path d="M122.73195,46.56595 C122.60795,46.44195 121.30695,45.03695 120.14695,43.00395 C118.96695,40.96195 117.99995,38.37395 118.01395,35.84495 C118.07195,33.20395 118.78895,30.39595 122.41095,26.68695 C126.11095,23.07095 129.59295,22.32295 132.49195,22.31895 C135.39095,22.32295 138.87295,23.07095 142.57295,26.68695 C146.19495,30.39595 146.91195,33.20395 146.96995,35.84495 C146.98495,38.37395 146.01695,40.96195 144.83795,43.00395 C143.67795,45.03695 142.37695,46.44195 142.25295,46.56595 L132.49195,56.32695 L122.73195,46.56595 Z M263.22695,187.06695 C263.22695,187.06695 179.84795,103.68795 140.97495,64.81295 L150.75395,55.03495 C150.98395,54.79795 152.89695,52.87395 154.87695,49.60195 C156.83295,46.33795 158.95095,41.63895 158.96995,35.84495 C159.02695,30.17995 156.64895,23.70795 151.05895,18.20395 C145.56895,12.62595 138.14895,10.24795 132.49195,10.29195 C126.83595,10.24795 119.41595,12.62595 113.92595,18.20395 C108.33595,23.70795 105.95695,30.17995 106.01495,35.84495 C106.03395,41.63895 108.15095,46.33795 110.10695,49.60195 C112.08795,52.87395 114.00095,54.79795 114.23095,55.03495 L124.00995,64.81295 C85.1359501,103.68795 1.75795008,187.06695 1.75795008,187.06695 C-0.58504992,189.40895 -0.58504992,193.20895 1.75595008,195.55195 C4.09895008,197.89595 7.89895008,197.89595 10.2429501,195.55195 C10.2429501,195.55195 41.8659501,163.92795 75.2429501,130.55195 C96.0619501,109.73295 117.55895,88.23295 132.49195,73.29895 C147.42495,88.23295 168.92295,109.73295 189.74095,130.55195 C223.11795,163.92795 254.74195,195.55195 254.74195,195.55195 C257.08495,197.89595 260.88495,197.89595 263.22895,195.55195 C265.56995,193.20895 265.56995,189.40895 263.22695,187.06695 L263.22695,187.06695 Z" class="up-loop" fill="#26B9B9"></path>
            <path d="M132.49225,160.47615 L142.25225,170.23615 C142.37625,170.36115 143.67825,171.76515 144.83825,173.79815 C146.01725,175.84115 146.98525,178.42915 146.97025,180.95615 C146.91225,183.59915 146.19525,186.40615 142.57325,190.11515 C138.87325,193.73115 135.39125,194.48015 132.49225,194.48315 C129.59325,194.48015 126.11125,193.73115 122.41125,190.11515 C118.78925,186.40615 118.07225,183.59915 118.01425,180.95615 C117.99925,178.42915 118.96725,175.84115 120.14625,173.79815 C121.30625,171.76515 122.60825,170.36115 122.73225,170.23615 L132.49225,160.47615 Z M263.22825,21.24915 C260.88525,18.90615 257.08525,18.90615 254.74225,21.24915 C254.74225,21.24915 223.11825,52.87415 189.74125,86.24915 C168.92325,107.07015 147.42525,128.56915 132.49225,143.50215 C117.55925,128.56915 96.0612501,107.07015 75.2432501,86.24915 C41.8662501,52.87415 10.2422501,21.24915 10.2422501,21.24915 C7.89925008,18.90615 4.09925008,18.90615 1.75625008,21.24915 C-0.58574992,23.59315 -0.58574992,27.39415 1.75825008,29.73615 C1.75825008,29.73615 85.1362501,113.11515 124.01025,151.98915 L114.23025,161.76715 C114.00025,162.00315 112.08825,163.92915 110.10725,167.20115 C108.15125,170.46415 106.03425,175.16415 106.01425,180.95615 C105.95725,186.62215 108.33525,193.09515 113.92625,198.59815 C119.41525,204.17715 126.83525,206.55415 132.49225,206.51015 C138.14925,206.55415 145.56925,204.17715 151.05825,198.59815 C156.64925,193.09515 159.02725,186.62215 158.97025,180.95615 C158.95025,175.16415 156.83325,170.46415 154.87725,167.20115 C152.89625,163.92915 150.98425,162.00315 150.75425,161.76715 L140.97425,151.98915 C179.84825,113.11515 263.22625,29.73615 263.22625,29.73615 C265.57025,27.39415 265.57025,23.59315 263.22825,21.24915 L263.22825,21.24915 Z" class="down-loop" fill="#26B9B9"></path>
        </g>
    </g>
</svg>