<?xml version="1.0" encoding="UTF-8" standalone="no"?>
<svg viewBox="0 0 265 214" version="1.1" xmlns="http://www.w3.org/2000/svg" xmlns:xlink="http://www.w3.org/1999/xlink" xmlns:sketch="http://www.bohemiancoding.com/sketch/ns">
    <g class="Page-1" stroke="none" stroke-width="1" fill="none" fill-rule="evenodd">
        <g class="yarn-logo-icon">
            <path d="M230.07915,85.96925 C241.74615,97.63625 241.74615,116.72825 230.07915,128.39525 L153.86115,204.61325 C142.19415,216.28025 123.10215,216.28025 111.43415,204.61325 L35.2171501,128.39525 C23.5491501,116.72825 23.5491501,97.63625 35.2171501,85.96925 L111.43415,9.75025 C123.10215,-1.91675 142.19415,-1.91675 153.86115,9.75025 L230.07915,85.96925 Z" class="tile" fill="#FFFFFF"></path>
            <path d="M122.7637,47.77065 C122.6397,47.64565 121.3377,46.24165 120.1777,44.20865 C118.9997,42.16665 118.0317,39.57765 118.0457,37.04965 C118.1037,34.40865 118.8207,31.60065 122.4437,27.89165 C126.1437,24.27565 129.6247,23.52765 132.5237,23.52365 C135.4227,23.52765 138.9047,24.27565 142.6057,27.89165 C146.2277,31.60065 146.9447,34.40865 147.0017,37.04965 C147.0167,39.57765 146.0487,42.16665 144.8687,44.20865 C143.7087,46.24165 142.4087,47.64565 142.2847,47.77065 L132.5237,57.53065 L122.7637,47.77065 Z M263.2577,188.27065 C263.2577,188.27065 179.8807,104.89265 141.0067,66.01865 L150.7857,56.23965 C151.0157,56.00265 152.9277,54.07865 154.9097,50.80665 C156.8657,47.54265 158.9827,42.84365 159.0017,37.04965 C159.0587,31.38465 156.6807,24.91265 151.0897,19.40865 C145.6007,13.83065 138.1807,11.45265 132.5237,11.49665 C126.8677,11.45265 119.4477,13.83065 113.9567,19.40865 C108.3677,24.91265 105.9887,31.38465 106.0467,37.04965 C106.0667,42.84365 108.1837,47.54265 110.1387,50.80665 C112.1187,54.07865 114.0327,56.00265 114.2617,56.23965 L124.0407,66.01865 C85.1677,104.89265 32.3177,157.74365 32.3177,157.74365 C29.9727,160.08565 29.9737,163.88565 32.3147,166.22865 C34.6587,168.57265 38.4587,168.57265 40.8007,166.22865 C40.8007,166.22865 41.8987,165.13265 75.2757,131.75665 C96.0937,110.93765 117.5907,89.43765 132.5237,74.50465 C147.4567,89.43765 168.9547,110.93765 189.7737,131.75665 C223.1507,165.13265 254.7737,196.75665 254.7737,196.75665 C257.1177,199.10065 260.9167,199.10065 263.2597,196.75665 C265.6017,194.41265 265.6017,190.61265 263.2577,188.27065 L263.2577,188.27065 Z" class="up-loop" fill="#26B9B9"></path>
            <path d="M142.252,166.67735 C142.377,166.80235 143.678,168.20635 144.838,170.24035 C146.017,172.28235 146.984,174.87035 146.971,177.39835 C146.912,180.04035 146.195,182.84735 142.573,186.55635 C138.873,190.17335 135.391,190.92135 132.492,190.92535 C129.594,190.92135 126.111,190.17335 122.411,186.55635 C118.789,182.84735 118.072,180.04035 118.014,177.39835 C118,174.87035 118.967,172.28235 120.147,170.24035 C121.307,168.20635 122.607,166.80235 122.732,166.67735 L132.492,156.91735 L142.252,166.67735 Z M1.758,26.17735 C1.758,26.17735 85.136,109.55635 124.01,148.43135 L114.231,158.20835 C114,158.44535 112.088,160.37035 110.107,163.64235 C108.15,166.90635 106.033,171.60535 106.015,177.39835 C105.957,183.06435 108.336,189.53635 113.926,195.04035 C119.416,200.61835 126.836,202.99535 132.492,202.95235 C138.148,202.99535 145.568,200.61835 151.059,195.04035 C156.648,189.53635 159.027,183.06435 158.97,177.39835 C158.95,171.60535 156.833,166.90635 154.877,163.64235 C152.897,160.37035 150.984,158.44535 150.754,158.20835 L140.975,148.43135 C179.848,109.55635 232.699,56.70435 232.699,56.70435 C235.043,54.36335 235.043,50.56335 232.701,48.21935 C230.357,45.87535 226.557,45.87535 224.215,48.21935 C224.215,48.21935 223.118,49.31635 189.74,82.69135 C168.922,103.51135 147.426,125.01035 132.492,139.94535 C117.559,125.01035 96.062,103.51135 75.243,82.69135 C41.866,49.31635 10.242,17.69235 10.242,17.69235 C7.899,15.34835 4.1,15.34835 1.756,17.69235 C-0.586,20.03535 -0.586,23.83535 1.758,26.17735 L1.758,26.17735 Z" class="down-loop" fill="#26B9B9"></path>
        </g>
    </g>
</svg>